<?xml version="1.0" encoding="iso-8859-1"?>
<!-- Generator: Adobe Illustrator 19.0.0, SVG Export Plug-In . SVG Version: 6.00 Build 0)  -->
<svg version="1.1" id="Layer_1" xmlns="http://www.w3.org/2000/svg" xmlns:xlink="http://www.w3.org/1999/xlink" x="0px" y="0px"
	 viewBox="0 0 512.002 512.002" style="enable-background:new 0 0 512.002 512.002; fill: #9F68FF" xml:space="preserve">
<g>
	<g>
		<polygon points="167.138,0 167.138,182.557 182.995,175.694 182.995,0 		"/>
	</g>
</g>
<g>
	<g>
		<path d="M402.948,95.789l-8.721-1.843l0.274-1.298c1.059-5.014-2.145-9.936-7.159-10.997c-5.022-1.066-9.937,2.146-10.997,7.159
			l-0.274,1.299l-3.813-0.806c-0.987-0.208-2.013-0.13-2.957,0.225l-25.159,9.464c-3.104,1.168-3.314,3.859-3.827,6.287
			c-0.605,2.859,1.223,5.667,4.083,6.272l25.982,5.491l-11.928,56.433c-2.22,1.299-4.219,3.056-5.839,5.261l-36.861,50.187
			c-31.001-21.883-42.499-29.916-42.441-29.875c-7.422-5.21-16.026-8.233-25.073-8.852c-13.031-0.891-29.409-1.906-42.61-2.621
			c-7.716-0.419-15.303,0.964-22.392,4.041c-19.625,8.518-13.546,5.881-66.671,28.871c-5.497,2.378-9.588,7.16-11.09,12.956
			c-1.504,5.797-0.247,11.964,3.401,16.711l49.483,64.406c6.539,8.513,18.74,10.103,27.242,3.57
			c8.508-6.536,10.107-18.734,3.57-27.242l-34.298-44.641l27.962-12.101c-1.393,1.204-7.811,6.749-9.217,7.963
			c1.406,1.829,13.041,16.972,14.659,19.08l85.451,2.191c5.75,0.15,11.58,1.887,16.685,5.282l0.751-9.533l17.755,12.534
			c8.651,6.106,20.596,4.161,26.863-4.371l48.146-65.555c6.352-8.648,4.49-20.808-4.157-27.159c-0.736-0.54-1.505-1-2.287-1.422
			l11.049-52.276l8.721,1.843c2.859,0.604,5.667-1.224,6.272-4.083l3.503-16.579C407.636,99.202,405.807,96.394,402.948,95.789z"/>
	</g>
</g>
<g>
	<g>
		<path d="M237.779,96.652c-22.168-1.744-41.554,14.813-43.3,36.982c-1.755,22.322,14.999,41.571,36.983,43.3
			c21.952,1.729,41.54-14.629,43.298-36.982C276.506,117.784,259.949,98.398,237.779,96.652z"/>
	</g>
</g>
<g>
	<g>
		<path d="M328.608,362.591L285.67,328.95l0.393-4.995c-3.938,1.798-8.463,2.847-13.149,2.847c-0.639,0-69.217-1.764-69.856-1.78
			c-1.086,1.426-2.289,2.783-3.603,4.061c-8.556,8.32-20.553,12.076-32.561,9.8l-0.561,6.586
			c-0.755,8.866,2.699,17.572,9.316,23.521c9.781,8.795,23.361,20.99,41.836,37.583l-56.942,67.021
			c-8.336,9.812-7.141,24.525,2.672,32.862c9.809,8.335,24.524,7.141,32.862-2.672l71.626-84.304
			c8.174-9.621,7.204-24.003-2.189-32.439l-16.218-14.566l18.066,1.421l0.079,0.007l20.226,15.846l-22.15,81.3
			c-3.385,12.422,3.943,25.237,16.365,28.622c12.43,3.384,25.238-3.947,28.622-16.365l26.22-96.235
			C339.19,378.02,335.992,368.375,328.608,362.591z"/>
	</g>
</g>
<g>
	<g>
		<path d="M273.345,278.099l-73.521-1.885l3.135,4.08c6.851,8.917,8.977,19.971,6.79,30.168c0.339,0.009,62.828,1.614,63.167,1.614
			c9.181,0,16.741-7.323,16.978-16.556C290.133,286.139,282.714,278.344,273.345,278.099z"/>
	</g>
</g>
<g>
</g>
<g>
</g>
<g>
</g>
<g>
</g>
<g>
</g>
<g>
</g>
<g>
</g>
<g>
</g>
<g>
</g>
<g>
</g>
<g>
</g>
<g>
</g>
<g>
</g>
<g>
</g>
<g>
</g>
</svg>
