<svg width="152" height="151" viewBox="0 0 152 151" fill="none" xmlns="http://www.w3.org/2000/svg">
<path d="M117.085 48.9237C122.682 52.2764 130.311 50.9831 134.114 46.0319C137.913 41.0857 136.448 34.355 130.84 31C125.228 27.645 117.609 28.9407 113.806 33.8872C110.011 38.8381 111.472 45.5665 117.085 48.9237Z" fill="#9F68FF"/>
<path d="M134.716 77.2713L123.342 56.6817C122.322 54.8339 120.733 53.2646 118.78 52.1744L109.389 46.9342L100.435 33.5345L103.374 16.4757C103.813 13.9167 101.881 11.3825 98.9582 10.7942C96.0814 10.2155 93.39 11.8225 92.9494 14.3852L89.7184 33.1704C89.5296 34.2827 89.7928 35.4493 90.4647 36.4555L103.48 55.9313L95.9589 67.8291L88.438 79.7269L69.783 73.5938C67.644 72.8588 65.1858 73.0265 63.2547 74.0267L39.506 86.3204C35.8343 88.2204 34.7818 92.5551 37.1514 96.0047C39.5062 99.4497 44.4135 100.709 48.08 98.8125L68.7831 88.0963L81.632 92.3199L71.1163 99.5647C69.5002 100.677 68.4915 102.36 68.3095 104.237L65.8748 129.609C65.5458 133.072 68.0622 136.344 71.686 137.45C72.1325 137.587 72.6011 137.691 73.0749 137.756C77.4263 138.366 81.2588 135.707 81.6328 131.817L83.7845 109.377L103.096 96.0684C103.797 95.5852 104.416 95.0248 104.846 94.3567C108.606 88.5137 119.679 70.891 119.679 70.891L124.182 78.9413L116.127 94.3032C114.918 96.6078 116.085 99.4934 118.733 100.748C119.003 100.876 119.277 100.982 119.555 101.067C122 101.814 124.633 100.915 125.716 98.8434L134.84 81.4407C135.515 80.1551 135.468 78.6161 134.716 77.2713Z" fill="#9F68FF"/>
<path d="M69.5429 28.3795L96.4512 11.0015C97.1115 10.5773 97.3814 9.82745 97.1324 9.14428C96.8769 8.46341 96.1554 7.99997 95.3388 7.99997H8.42871C3.77332 7.99968 0 11.3295 0 15.4367V143.654C0 144.723 0.816632 145.656 1.99054 145.925C3.15889 146.193 4.39169 145.727 4.97864 144.794L28.0367 108.232C28.7751 107.064 29.3202 105.81 29.6634 104.506L37.6302 74.0452C38.3359 71.3417 39.9273 68.8766 42.1979 66.9547L56.3643 54.9818C58.8063 52.9202 60.4481 50.2351 61.072 47.3043L63.2032 37.2645C63.9564 33.6994 66.2221 30.5211 69.5429 28.3795Z" fill="#9F68FF"/>
</svg>
