<svg width="119" height="150" viewBox="0 0 119 150" fill="none" xmlns="http://www.w3.org/2000/svg">
<path d="M112.947 28.5482L111.821 28.5482L110.947 27.5482C111.246 26.1047 110.864 24.8537 109.447 24.5482C108.029 24.2413 106.747 25.105 106.447 26.5482L105.947 27.0482V27.5482C105.668 27.4883 105.214 28.446 104.947 28.5482L95.9472 33.0482C95.0704 33.3845 97.0922 33.8492 96.9472 34.5482C96.7763 35.3713 104.639 32.874 105.447 33.0482L106.447 36.0482L107.249 56.0482C106.622 56.4222 102.61 57.4134 102.153 58.0482L89.9472 64.0106C81.1896 57.7105 75.0195 53.8941 75.0359 53.9059C72.9392 52.4059 70.5086 51.5356 67.9529 51.3573C64.2717 51.1008 59.645 50.8086 55.9158 50.6028C53.736 50.4821 51.5927 50.8803 49.5901 51.7662C44.0461 54.2185 45.7634 53.4593 30.7559 60.0782C29.203 60.7628 27.9472 61.5482 26.4472 63.0482C26.0224 64.7172 25.4472 65.5482 25.4472 67.5482L19.9472 88.5482C20.9472 91.0482 20.9472 92.5482 25.4472 93.5482C28.9472 93.5482 30.4472 92.0482 31.4472 89.5482L36.4472 69.5482L49.4768 64.0106C49.0833 64.3573 48.8444 67.1987 48.4472 67.5482C48.8444 68.0748 51.9902 74.205 52.4472 74.8119L69.9472 73.5534C71.5716 73.5966 76.0051 72.576 77.4472 73.5534V69.0482L85.095 74.8119C87.5389 76.5698 89.4472 73.9479 92.6837 73.5534L113.447 63.0482C115.242 60.5584 114.1 57.8767 111.658 56.0482C112.658 54.5482 110.321 58.0482 111.821 58.0482V35.5482L112.947 33.0482C113.447 32.5482 117.447 32.5482 118.447 32.0482V30.0482C118.619 29.2251 113.755 28.7224 112.947 28.5482Z" fill="#9F68FF"/>
<path d="M67.6288 23.6528C61.3665 23.1507 55.89 27.9175 55.3968 34.3C54.901 40.7265 59.6339 46.2684 65.8443 46.7662C72.0457 47.2639 77.5792 42.5544 78.0758 36.119C78.569 29.7368 73.8918 24.1555 67.6288 23.6528Z" fill="#9F68FF"/>
<path d="M97.3745 89.1441L87.4472 88.6317H82.9472C81.4472 88.6317 80.4472 88.6317 79.3484 89.1441C79.1679 89.1441 59.7949 88.6363 59.6144 88.6317C59.3076 89.0422 58.9678 89.4329 58.5966 89.8009C56.1796 92.1962 52.7905 93.2776 49.3983 92.6223L49.2398 94.5184C49.0265 97.071 50.0022 99.5774 51.8715 101.29C54.6346 103.822 66.2282 112.771 71.4473 117.548L83.9472 145.048C86.9472 149.048 86.9473 148.548 91.4473 149.048C94.9473 148.048 95.4473 146.548 95.9473 142.048L83.9472 115.048C82.4472 111.048 79.9114 108.916 77.258 106.487L72.6765 102.293L80.4472 101.29H97.3745L106.947 122.048C107.947 124.048 109.947 124.048 113.447 124.048C117.447 121.048 116.491 122.123 117.447 118.548L106.947 92.6223C105.947 89.7626 102.447 89.1441 97.3745 89.1441Z" fill="#9F68FF"/>
<path d="M73.3974 76.7309L53.0513 78.3553L56.6061 79.3029C59.6757 80.6082 60.0168 82.5125 59.6757 85.1204C59.7696 85.1129 74.0608 85.2347 74.1544 85.225C76.6891 84.9634 78.5876 82.9199 78.4151 80.6082C78.2394 78.2596 75.9903 76.5251 73.3974 76.7309Z" fill="#9F68FF"/>
<path d="M3.44714 4.5482L35.0949 55.5808L38.4472 54.0482C38.4472 54.0482 42.5005 52.1258 42.4472 52.0482C42.3939 51.9706 11.9471 2.04821 12.9472 4.5482L8.44714 4.54821L3.44714 4.5482Z" fill="#9F68FF"/>
</svg>
